<svg width="24" height="24" viewBox="0 0 24 24" fill="none" xmlns="http://www.w3.org/2000/svg">
<g clip-path="url(#clip0_2596_138580)">
<rect width="24" height="24" fill="#AB9FF2"/>
<path fill-rule="evenodd" clip-rule="evenodd" d="M10.44 15.3C9.5 16.74 7.92 18.57 5.82 18.57C4.83 18.57 3.87 18.16 3.87 16.38C3.87 11.86 10.05 4.86 15.78 4.86C19.04 4.86 20.34 7.12 20.34 9.69C20.34 12.99 18.2 16.75 16.07 16.75C15.39 16.75 15.07 16.38 15.07 15.79C15.07 15.64 15.09 15.47 15.14 15.29C14.37 16.54 13.02 17.69 11.7 17.69C10.75 17.69 10.27 17.08 10.27 16.24C10.27 15.93 10.33 15.62 10.44 15.3ZM15.38 9.6C15.38 10.34 14.94 10.72 14.45 10.72C13.96 10.72 13.52 10.34 13.52 9.6C13.52 8.87 13.96 8.47 14.45 8.47C14.94 8.47 15.38 8.87 15.38 9.6ZM18.19 9.6C18.19 10.34 17.75 10.72 17.26 10.72C16.77 10.72 16.33 10.34 16.33 9.6C16.33 8.87 16.77 8.47 17.26 8.47C17.75 8.47 18.19 8.87 18.19 9.6Z" fill="#FFFDF8"/>
</g>
<defs>
<clipPath id="clip0_2596_138580">
<rect width="24" height="24" rx="12" fill="white"/>
</clipPath>
</defs>
</svg>