<svg xmlns="http://www.w3.org/2000/svg" viewBox="0 0 40 40">
  <defs>
    <linearGradient id="bitcoinGradient" x1="0%" y1="0%" x2="100%" y2="100%">
      <stop offset="0%" stop-color="#F7931A" />
      <stop offset="100%" stop-color="#F7931A" />
    </linearGradient>
  </defs>
  <circle cx="20" cy="20" r="15" fill="url(#bitcoinGradient)" />
  <path d="M16 13 L24 13 C26 13 28 15 28 17 L28 23 C28 25 26 27 24 27 L16 27 L16 25 L24 25 C25 25 26 24 26 23 L26 17 C26 16 25 15 24 15 L16 15 Z M18 17 L18 19 L22 19 L22 17 Z M18 21 L18 23 L22 23 L22 21 Z" fill="white" />
</svg>