<svg xmlns="http://www.w3.org/2000/svg" viewBox="0 0 24 24" fill="none">
  <path d="M12 24c6.627 0 12-5.373 12-12S18.627 0 12 0 0 5.373 0 12s5.373 12 12 12z" fill="#E4751F"/>
  <path d="M12 18.5L6.5 14.25 8 9.5l10 .5-1.5 4.75L12 18.5z" fill="#F6851B"/>
  <path d="M12 18.5l5.5-4.25-1.5-4.75-6.5-.25-1.5 4.75L12 18.5z" fill="#F9B32F"/>
  <path d="M12 14c-1.1 0-2-.9-2-2s.9-2 2-2 2 .9 2 2-.9 2-2 2z" fill="#F2F2F2"/>
  <path d="M8 9.5l1.5 4.5 2.5-1.5-1-3-3 .5z" fill="#1A1A1A"/>
  <path d="M16 9.5l-1.5 4.5-2.5-1.5 1-3 3 .5z" fill="#1A1A1A"/>
</svg>