<svg xmlns="http://www.w3.org/2000/svg" viewBox="0 0 24 24" fill="none">
  <path d="M12 24c6.627 0 12-5.373 12-12S18.627 0 12 0 0 5.373 0 12s5.373 12 12 12z" fill="#4d4d4d"/>
  <path d="M12 22C6.477 22 2 17.523 2 12S6.477 2 12 2s10 4.477 10 10-4.477 10-10 10z" fill="#ffffff"/>
  <path d="M16.5 12c0 2.485-2.015 4.5-4.5 4.5S7.5 14.485 7.5 12 9.515 7.5 12 7.5s4.5 2.015 4.5 4.5z" fill="#4d4d4d"/>
  <path d="M15 12c0 1.657-1.343 3-3 3s-3-1.343-3-3 1.343-3 3-3 3 1.343 3 3z" fill="#a38642"/>
  <path d="M9 9c-.552 0-1-.448-1-1s.448-1 1-1 1 .448 1 1-.448 1-1 1z" fill="#1a1a1a"/>
  <path d="M15 9c-.552 0-1-.448-1-1s.448-1 1-1 1 .448 1 1-.448 1-1 1z" fill="#1a1a1a"/>
  <path d="M12 15c1.105 0 2-.895 2-2h-4c0 1.105.895 2 2 2z" fill="#1a1a1a"/>
</svg>